<?xml version="1.0" encoding="utf-8"?>
<!-- Generator: Adobe Illustrator 16.0.0, SVG Export Plug-In . SVG Version: 6.00 Build 0)  -->
<!DOCTYPE svg PUBLIC "-//W3C//DTD SVG 1.1//EN" "http://www.w3.org/Graphics/SVG/1.1/DTD/svg11.dtd">
<svg version="1.1" id="Layer_1" xmlns="http://www.w3.org/2000/svg" xmlns:xlink="http://www.w3.org/1999/xlink" x="0px" y="0px"
	 width="100px" height="100px" viewBox="0 0 100 100" enable-background="new 0 0 100 100" xml:space="preserve">
<g>
	<path fill="#FFFFFF" d="M61.541,32.811H40.959c-0.92,0-1.668-0.749-1.668-1.668V10.56c0-0.92,0.748-1.668,1.668-1.668h20.582
		c0.92,0,1.668,0.749,1.668,1.668v20.582C63.209,32.062,62.461,32.811,61.541,32.811z M40.959,10.004
		c-0.307,0-0.555,0.249-0.555,0.556v20.582c0,0.307,0.249,0.557,0.555,0.557h20.582c0.307,0,0.557-0.25,0.557-0.557V10.56
		c0-0.308-0.25-0.556-0.557-0.556H40.959z"/>
</g>
<g>
	<path fill="#FFFFFF" d="M45.501,24.281c-0.142,0-0.285-0.054-0.394-0.163c-0.217-0.217-0.217-0.57,0-0.787l5.749-5.749
		c0.209-0.208,0.578-0.208,0.787,0l5.748,5.749c0.219,0.217,0.219,0.569,0,0.787c-0.218,0.217-0.57,0.217-0.787,0l-5.354-5.355
		l-5.355,5.355C45.787,24.228,45.645,24.281,45.501,24.281z"/>
</g>
<g>
	<path fill="#FFFFFF" d="M61.541,57.842H40.959c-0.92,0-1.668-0.748-1.668-1.668V35.592c0-0.92,0.748-1.669,1.668-1.669h20.582
		c0.92,0,1.668,0.749,1.668,1.669v20.582C63.209,57.094,62.461,57.842,61.541,57.842z M40.959,35.036
		c-0.307,0-0.555,0.25-0.555,0.556v20.582c0,0.307,0.249,0.555,0.555,0.555h20.582c0.307,0,0.557-0.248,0.557-0.555V35.592
		c0-0.307-0.25-0.556-0.557-0.556H40.959z"/>
</g>
<g>
	<path fill="#FFFFFF" d="M51.25,49.312c-0.146,0-0.289-0.059-0.393-0.163l-5.75-5.749c-0.217-0.217-0.217-0.57,0-0.787
		c0.217-0.218,0.569-0.218,0.787,0l5.354,5.354l5.354-5.354c0.217-0.218,0.569-0.218,0.787,0c0.217,0.217,0.217,0.569,0,0.787
		l-5.748,5.749C51.539,49.254,51.398,49.312,51.25,49.312z"/>
</g>
<g>
	<path fill="#FFFFFF" d="M86.572,57.842H65.99c-0.92,0-1.668-0.748-1.668-1.668V35.592c0-0.92,0.748-1.669,1.668-1.669h20.582
		c0.92,0,1.668,0.749,1.668,1.669v20.582C88.24,57.094,87.492,57.842,86.572,57.842z M65.99,35.036c-0.307,0-0.557,0.25-0.557,0.556
		v20.582c0,0.307,0.25,0.555,0.557,0.555h20.582c0.307,0,0.556-0.248,0.556-0.555V35.592c0-0.307-0.249-0.556-0.556-0.556H65.99z"/>
</g>
<g>
	<path fill="#FFFFFF" d="M73.407,52.188c-0.142,0-0.284-0.055-0.394-0.164c-0.218-0.217-0.218-0.568,0-0.787l5.354-5.354
		l-5.354-5.355c-0.218-0.218-0.218-0.569,0-0.787c0.219-0.218,0.569-0.218,0.786,0l5.749,5.748c0.217,0.218,0.217,0.57,0,0.787
		L73.8,52.023C73.691,52.133,73.55,52.188,73.407,52.188z"/>
</g>
<g>
	<path fill="#FFFFFF" d="M36.51,57.842H15.928c-0.92,0-1.669-0.748-1.669-1.668V35.592c0-0.92,0.749-1.669,1.669-1.669H36.51
		c0.92,0,1.669,0.749,1.669,1.669v20.582C38.179,57.094,37.43,57.842,36.51,57.842z M15.928,35.036c-0.307,0-0.556,0.25-0.556,0.556
		v20.582c0,0.307,0.25,0.555,0.556,0.555H36.51c0.307,0,0.556-0.248,0.556-0.555V35.592c0-0.307-0.25-0.556-0.556-0.556H15.928z"/>
</g>
<g>
	<path fill="#FFFFFF" d="M29.093,52.188c-0.142,0-0.285-0.055-0.394-0.164l-5.748-5.748c-0.217-0.218-0.217-0.569,0-0.787
		l5.748-5.748c0.217-0.218,0.57-0.218,0.787,0c0.217,0.217,0.217,0.569,0,0.787l-5.355,5.355l5.355,5.354
		c0.217,0.219,0.217,0.57,0,0.787C29.377,52.133,29.235,52.188,29.093,52.188z"/>
</g>
</svg>
