<?xml version="1.0" encoding="utf-8"?>
<!-- Generator: Adobe Illustrator 16.0.0, SVG Export Plug-In . SVG Version: 6.00 Build 0)  -->
<!DOCTYPE svg PUBLIC "-//W3C//DTD SVG 1.1//EN" "http://www.w3.org/Graphics/SVG/1.1/DTD/svg11.dtd">
<svg version="1.1" id="Layer_1" xmlns="http://www.w3.org/2000/svg" xmlns:xlink="http://www.w3.org/1999/xlink" x="0px" y="0px"
	 width="100px" height="100px" viewBox="0 0 100 100" enable-background="new 0 0 100 100" xml:space="preserve">
<g>
	<path fill="#FFFFFF" d="M61.77,26.669c-1.098,0-1.987,0.892-1.987,1.988c0,1.096,0.891,1.989,1.987,1.989
		c1.096,0,1.988-0.892,1.988-1.989C63.757,27.561,62.863,26.669,61.77,26.669z M61.77,29.755c-0.604,0-1.099-0.493-1.099-1.098
		c0-0.605,0.493-1.098,1.099-1.098c0.604,0,1.099,0.493,1.099,1.098C62.867,29.262,62.374,29.755,61.77,29.755z"/>
	<path fill="#FFFFFF" d="M55.62,30.756c0.89,0,1.614-0.725,1.614-1.616s-0.726-1.616-1.614-1.616c-0.892,0-1.616,0.725-1.616,1.616
		S54.729,30.756,55.62,30.756z M55.62,28.414c0.399,0,0.726,0.325,0.726,0.725s-0.326,0.725-0.726,0.725s-0.726-0.325-0.726-0.725
		S55.221,28.414,55.62,28.414z"/>
	<path fill="#FFFFFF" d="M47.821,27.524c-0.891,0-1.616,0.725-1.616,1.616s0.725,1.616,1.616,1.616c0.891,0,1.616-0.725,1.616-1.616
		S48.711,27.524,47.821,27.524z M47.821,29.865c-0.4,0-0.725-0.325-0.725-0.725s0.325-0.725,0.725-0.725
		c0.4,0,0.725,0.325,0.725,0.725S48.221,29.865,47.821,29.865z"/>
	<path fill="#FFFFFF" d="M68.748,26.669c-1.096,0-1.988,0.892-1.988,1.988c0,1.096,0.893,1.989,1.988,1.989
		c1.095,0,1.99-0.892,1.99-1.989C70.736,27.561,69.844,26.669,68.748,26.669z M68.748,29.755c-0.604,0-1.098-0.493-1.098-1.098
		c0-0.605,0.492-1.098,1.098-1.098s1.098,0.493,1.098,1.098C69.846,29.262,69.354,29.755,68.748,29.755z"/>
	<path fill="#FFFFFF" d="M65.26,27.378c1.096,0,1.988-0.893,1.988-1.989c0-1.096-0.893-1.988-1.988-1.988
		c-1.097,0-1.99,0.892-1.99,1.988C63.27,26.485,64.162,27.378,65.26,27.378z M65.26,24.292c0.604,0,1.098,0.493,1.098,1.097
		c0,0.605-0.493,1.098-1.098,1.098c-0.605,0-1.098-0.493-1.098-1.098C64.16,24.785,64.652,24.292,65.26,24.292z"/>
	<path fill="#FFFFFF" d="M65.26,29.937c-1.097,0-1.99,0.891-1.99,1.988c0,1.097,0.894,1.988,1.99,1.988
		c1.096,0,1.988-0.892,1.988-1.988C67.248,30.829,66.355,29.937,65.26,29.937z M65.26,33.022c-0.605,0-1.098-0.494-1.098-1.098
		s0.49-1.098,1.098-1.098c0.604,0,1.098,0.493,1.098,1.098C66.355,32.53,65.863,33.022,65.26,33.022z"/>
	<path fill="#FFFFFF" d="M58.516,33.443c-1.707,0-3.099,1.389-3.099,3.098s1.392,3.098,3.099,3.098c1.709,0,3.1-1.39,3.1-3.098
		S60.225,33.443,58.516,33.443z M58.516,38.749c-1.217,0-2.207-0.991-2.207-2.208s0.99-2.208,2.207-2.208
		c1.219,0,2.207,0.991,2.207,2.208S59.732,38.749,58.516,38.749z"/>
	<path fill="#FFFFFF" d="M58.516,31.924c-2.545,0-4.617,2.072-4.617,4.617c0,2.547,2.072,4.617,4.617,4.617
		c2.547,0,4.617-2.071,4.617-4.617C63.133,33.996,61.062,31.924,58.516,31.924z M58.516,40.268c-2.055,0-3.727-1.672-3.727-3.728
		c0-2.055,1.672-3.727,3.727-3.727s3.729,1.672,3.729,3.727C62.243,38.596,60.57,40.268,58.516,40.268z"/>
	<path fill="#FFFFFF" d="M38.342,25.559c-1.708,0-3.098,1.39-3.098,3.098s1.39,3.098,3.098,3.098s3.098-1.39,3.098-3.098
		S40.05,25.559,38.342,25.559z M38.342,30.864c-1.217,0-2.208-0.99-2.208-2.207c0-1.217,0.99-2.208,2.208-2.208
		c1.217,0,2.208,0.99,2.208,2.208C40.55,29.874,39.559,30.864,38.342,30.864z"/>
	<path fill="#FFFFFF" d="M51.605,25.357c1.273,0,2.312-1.037,2.312-2.312s-1.037-2.312-2.312-2.312
		c-1.275,0-2.312,1.037-2.312,2.312C49.292,24.32,50.331,25.357,51.605,25.357z M51.605,21.623c0.783,0,1.422,0.638,1.422,1.421
		s-0.639,1.421-1.422,1.421c-0.785,0-1.422-0.638-1.422-1.421S50.82,21.623,51.605,21.623z"/>
	<path fill="#FFFFFF" d="M42.96,28.658c0-2.546-2.071-4.617-4.618-4.617c-2.546,0-4.617,2.071-4.617,4.617
		c0,2.546,2.071,4.617,4.617,4.617C40.888,33.274,42.96,31.203,42.96,28.658z M38.342,32.384c-2.055,0-3.727-1.672-3.727-3.727
		c0-2.055,1.672-3.727,3.727-3.727c2.055,0,3.728,1.672,3.728,3.727C42.069,30.712,40.397,32.384,38.342,32.384z"/>
	<path fill="#FFFFFF" d="M48.534,35.199h-2.03v-2.031c0-0.246-0.2-0.445-0.445-0.445h-2.284c-0.246,0-0.445,0.199-0.445,0.445v2.031
		H41.3c-0.247,0-0.446,0.2-0.446,0.445v2.284c0,0.246,0.199,0.446,0.446,0.446h2.031v2.03c0,0.246,0.2,0.445,0.445,0.445h2.284
		c0.246,0,0.445-0.2,0.445-0.445v-2.03h2.03c0.247,0,0.446-0.2,0.446-0.446v-2.284C48.979,35.398,48.78,35.199,48.534,35.199z
		 M48.089,37.481h-2.03c-0.246,0-0.446,0.201-0.446,0.446v2.031H44.22v-2.031c0-0.245-0.2-0.446-0.446-0.446h-2.03V36.09h2.03
		c0.246,0,0.446-0.201,0.446-0.447v-2.03h1.393v2.03c0,0.246,0.2,0.447,0.446,0.447h2.03V37.481z"/>
	<path fill="#FFFFFF" d="M78.646,43.665c-1.283-9.884-6.574-20.712-6.801-21.168c-0.093-0.189-0.25-0.34-0.445-0.423l-0.803-0.349
		l-0.246-0.934c-0.017-0.068-0.043-0.134-0.076-0.196c-0.055-0.104-0.59-1.029-2.129-1.632c-1.408-0.55-4.914-1.832-7.06-1.832
		c-0.737,0-1.299,0.146-1.707,0.445c-0.287,0.146-1.594,0.769-2.801,0.769H46.374c-1.209,0-2.517-0.625-2.802-0.769
		c-0.408-0.3-0.968-0.446-1.706-0.446c-2.146,0-5.651,1.281-7.06,1.832c-1.54,0.603-2.073,1.528-2.129,1.632
		c-0.033,0.062-0.06,0.128-0.078,0.196l-0.257,0.983l-0.609,0.336c-0.159,0.088-0.288,0.223-0.369,0.387
		c-0.225,0.456-5.516,11.284-6.8,21.168c-0.481,3.699,0.044,6.451,1.562,8.178c1.476,1.68,3.456,1.861,4.238,1.861
		c0.084,0,0.159-0.002,0.223-0.004c0.125,0.035,0.259,0.056,0.397,0.056h0.001c1.108-0.001,2.688-1.058,7.861-6.63
		c0.504-0.543,0.902-0.972,1.145-1.215c0.754-0.754,2.357-1.021,3.503-1.021c0.07,0,0.113,0.001,0.119,0.001
		c0.011,0,0.022,0,0.034,0h15.917c0.011,0,0.021,0,0.031,0s0.051-0.001,0.122-0.001c1.146,0,2.748,0.267,3.503,1.021
		c0.242,0.243,0.641,0.671,1.146,1.215c5.172,5.572,6.754,6.63,7.86,6.63c0.139,0,0.271-0.021,0.396-0.056
		c0.064,0.002,0.141,0.004,0.225,0.004c0.781,0,2.762-0.182,4.238-1.861C78.602,50.116,79.127,47.364,78.646,43.665z M60.288,19.111
		c0.052-0.028,0.101-0.061,0.146-0.1c0.002,0,0.144-0.102,0.654-0.102c1.895,0,5.385,1.309,6.409,1.71
		c0.72,0.281,1.055,0.626,1.173,0.771l0.118,0.454c-6.187-2.812-8.317-0.712-8.414-0.61c-0.013,0.013-0.024,0.028-0.037,0.043
		c-0.001,0.003-0.077,0.104-0.239,0.3l-1.041-1.935C59.764,19.393,60.25,19.133,60.288,19.111z M56.58,20.125
		c0.553,0,1.104-0.09,1.607-0.216l1.287,2.392c-0.42,0.471-1.009,1.102-1.804,1.896c-1.549,1.549-2.18,1.711-2.257,1.725
		c-0.01,0-0.018,0-0.025,0H47.82c-0.008,0-0.017,0-0.025,0c-0.077-0.015-0.709-0.176-2.257-1.725
		c-0.835-0.836-1.446-1.493-1.87-1.971l1.231-2.286c0.467,0.109,0.97,0.185,1.474,0.185H56.58L56.58,20.125z M35.455,20.621
		c1.025-0.401,4.517-1.709,6.411-1.709c0.51,0,0.652,0.1,0.652,0.1c0.046,0.038,0.095,0.072,0.147,0.1
		c0.042,0.022,0.584,0.312,1.358,0.576L43.047,21.5c-0.116-0.143-0.172-0.218-0.175-0.221c-0.012-0.016-0.024-0.03-0.037-0.044
		c-0.099-0.104-2.294-2.272-8.708,0.743l0.154-0.586C34.401,21.247,34.737,20.901,35.455,20.621z M75.748,50.666
		c-0.997,1.134-2.361,1.256-2.9,1.256c-0.16,0-0.258-0.01-0.259-0.01l0,0c-0.142-0.018-0.286-0.002-0.419,0.047
		c-1.191-0.328-5.172-4.615-6.499-6.046c-0.517-0.556-0.925-0.996-1.19-1.262c-1.393-1.392-3.793-1.543-4.762-1.543
		c-0.082,0-0.14,0.001-0.169,0.003H43.661c-0.028-0.002-0.086-0.003-0.167-0.003c-0.968,0-3.369,0.151-4.762,1.543
		c-0.266,0.266-0.674,0.706-1.19,1.261c-1.332,1.436-5.337,5.75-6.496,6.048c-0.101-0.037-0.208-0.056-0.315-0.056
		c-0.034,0-0.068,0.002-0.102,0.006c-0.001,0-0.099,0.011-0.263,0.011c-0.54,0-1.905-0.122-2.9-1.256
		c-1.147-1.306-1.54-3.648-1.133-6.772c1.112-8.56,5.48-18.175,6.442-20.216c6.842-3.801,9.226-1.993,9.41-1.838
		c0.146,0.192,0.918,1.176,2.728,2.985c1.755,1.755,2.579,2.014,2.936,1.986h7.52c0.016,0.001,0.035,0.002,0.053,0.002
		c0.383,0,1.21-0.313,2.885-1.988c1.803-1.802,2.575-2.785,2.727-2.983c0.195-0.165,2.337-1.749,8.287,1.241
		c0.055,0.04,0.113,0.074,0.177,0.102l0.162,0.07c0.254,0.132,0.517,0.274,0.784,0.423c0.961,2.035,5.328,11.646,6.441,20.215
		C77.287,47.019,76.896,49.36,75.748,50.666z"/>
</g>
</svg>
