<?xml version="1.0" encoding="utf-8"?>
<!-- Generator: Adobe Illustrator 16.0.0, SVG Export Plug-In . SVG Version: 6.00 Build 0)  -->
<!DOCTYPE svg PUBLIC "-//W3C//DTD SVG 1.1//EN" "http://www.w3.org/Graphics/SVG/1.1/DTD/svg11.dtd">
<svg version="1.1" id="Слой_1" xmlns="http://www.w3.org/2000/svg" xmlns:xlink="http://www.w3.org/1999/xlink" x="0px" y="0px"
	 width="100px" height="100px" viewBox="0 0 100 100" enable-background="new 0 0 100 100" xml:space="preserve">
<path fill="#FFFFFF" d="M23.519,41.852h16.222l-2.815,1.407C35.519,44,34.63,45.407,34.63,46.963c0,2.296,1.852,4.148,4.148,4.148
	h25.037c2.297,0,4.148-1.853,4.148-4.148c0-1.556-0.889-2.963-2.297-3.704l-2.814-1.407h16.224c3.036,0,5.555-2.519,5.555-5.556
	v-3.704c0-3.037-2.519-5.556-5.555-5.556H23.519c-3.037,0-5.556,2.519-5.556,5.556v3.704C17.963,39.333,20.481,41.852,23.519,41.852
	z M64.037,46.593c0.148,0.074,0.223,0.222,0.223,0.37c0,0.222-0.223,0.444-0.445,0.444H38.778c-0.222,0-0.444-0.222-0.444-0.444
	c0-0.148,0.074-0.296,0.222-0.37l9.481-4.741h6.52L64.037,46.593z M21.667,32.593c0-1.037,0.815-1.852,1.852-1.852h55.556
	c1.036,0,1.852,0.815,1.852,1.852v3.704c0,1.037-0.813,1.852-1.852,1.852H23.519c-1.037,0-1.852-0.814-1.852-1.852V32.593z"/>
<circle fill="#FFFFFF" cx="54.111" cy="34.445" r="1.852"/>
<circle fill="#FFFFFF" cx="48.556" cy="34.445" r="1.852"/>
<circle fill="#FFFFFF" cx="43" cy="34.444" r="0.963"/>
<circle fill="#FFFFFF" cx="37.444" cy="34.445" r="1.852"/>
</svg>
