<?xml version="1.0" encoding="utf-8"?>
<!-- Generator: Adobe Illustrator 16.0.0, SVG Export Plug-In . SVG Version: 6.00 Build 0)  -->
<!DOCTYPE svg PUBLIC "-//W3C//DTD SVG 1.1//EN" "http://www.w3.org/Graphics/SVG/1.1/DTD/svg11.dtd">
<svg version="1.1" id="Your_Icon" xmlns="http://www.w3.org/2000/svg" xmlns:xlink="http://www.w3.org/1999/xlink" x="0px" y="0px"
	 width="100px" height="100px" viewBox="0 0 100 100" enable-background="new 0 0 100 100" xml:space="preserve">
<g>
	<path fill="#FFFFFF" d="M57.223,60.37c-8.986,0-16.297-7.31-16.297-16.296v-30.37c0-2.859,2.326-5.185,5.186-5.185
		c2.859,0,5.186,2.326,5.186,5.185v13.093c0.675-0.321,1.427-0.5,2.222-0.5c2.076,0,3.869,1.224,4.696,2.989
		c0.789-0.487,1.718-0.767,2.711-0.767c2.075,0,3.869,1.225,4.697,2.989c0.789-0.487,1.717-0.767,2.711-0.767
		c2.856,0,5.185,2.326,5.185,5.185v8.148C73.52,53.061,66.208,60.37,57.223,60.37z M46.111,11.481c-1.226,0-2.223,0.997-2.223,2.222
		v30.371c0,7.352,5.981,13.333,13.334,13.333c7.352,0,13.332-5.981,13.332-13.333v-8.148c0-1.225-0.996-2.222-2.222-2.222
		c-1.228,0-2.224,0.997-2.224,2.222c0,0.818-0.664,1.481-1.481,1.481c-0.815,0-1.479-0.664-1.479-1.481v-2.222
		c0-1.225-0.998-2.222-2.224-2.222c-1.225,0-2.223,0.997-2.223,2.222c0,0.818-0.663,1.481-1.479,1.481
		c-0.818,0-1.482-0.664-1.482-1.481v-2.222c0-1.225-0.996-2.222-2.223-2.222c-1.226,0-2.222,0.997-2.222,2.222
		c0,0.818-0.664,1.481-1.482,1.481s-1.481-0.664-1.481-1.481V13.704C48.333,12.479,47.336,11.481,46.111,11.481z"/>
	<path fill="#FFFFFF" d="M62.711,14.748l-3.703,3.704c-0.289,0.289-0.667,0.437-1.045,0.437s-0.756-0.148-1.045-0.437
		c-0.584-0.578-0.584-1.511,0-2.089l1.178-1.178H55c-0.814,0-1.48-0.667-1.48-1.481s0.666-1.481,1.48-1.481h3.096l-1.178-1.178
		c-0.584-0.578-0.584-1.511,0-2.089c0.578-0.585,1.512-0.585,2.09,0l3.703,3.704C63.297,13.237,63.297,14.17,62.711,14.748z"/>
	<path fill="#FFFFFF" d="M38.704,13.704c0,0.815-0.667,1.481-1.481,1.481h-3.096l1.178,1.178c0.585,0.578,0.585,1.511,0,2.089
		c-0.289,0.289-0.667,0.437-1.044,0.437c-0.377,0-0.755-0.148-1.044-0.437l-3.704-3.704c-0.585-0.578-0.585-1.511,0-2.089
		l3.704-3.704c0.578-0.585,1.511-0.585,2.089,0c0.585,0.578,0.585,1.511,0,2.089l-1.178,1.178h3.096
		C38.037,12.222,38.704,12.889,38.704,13.704z"/>
</g>
</svg>
