<?xml version="1.0" encoding="utf-8"?>
<!-- Generator: Adobe Illustrator 16.0.0, SVG Export Plug-In . SVG Version: 6.00 Build 0)  -->
<!DOCTYPE svg PUBLIC "-//W3C//DTD SVG 1.1//EN" "http://www.w3.org/Graphics/SVG/1.1/DTD/svg11.dtd">
<svg version="1.1" id="Слой_1" xmlns="http://www.w3.org/2000/svg" xmlns:xlink="http://www.w3.org/1999/xlink" x="0px" y="0px"
	 width="100px" height="100px" viewBox="0 0 100 100" enable-background="new 0 0 100 100" xml:space="preserve">
<path fill="#FFFFFF" d="M79.074,1.111H23.519c-3.037,0-5.556,2.519-5.556,5.555v40.741c0,3.037,2.519,5.556,5.556,5.556h14.815
	v3.703c0,0.52,0.222,0.964,0.519,1.334l5.037,5.037V66c0,1.037,0.815,1.852,1.852,1.852c1.037,0,1.852-0.813,1.852-1.852v-3.703
	c0-0.52-0.223-0.963-0.519-1.334l-5.037-5.037V44.444l1.852-1.852v8.52c0,1.037,0.815,1.852,1.852,1.852
	c1.037,0,1.852-0.814,1.852-1.852V26.593c0-0.519,0.444-0.963,0.963-0.963s0.963,0.444,0.963,0.963v17.111
	c0,1.037,0.815,1.852,1.852,1.852s1.853-0.815,1.853-1.852v-7.407c0-0.519,0.443-0.963,0.963-0.963c0.519,0,0.963,0.444,0.963,0.963
	v7.407c0,1.037,0.814,1.852,1.853,1.852s1.853-0.815,1.853-1.852v-4.667c0-0.519,0.444-0.963,0.963-0.963
	c0.52,0,0.963,0.444,0.963,0.963v4.667c0,1.037,0.814,1.852,1.852,1.852s1.854-0.815,1.854-1.852v-1.852
	c0-0.519,0.443-0.963,0.963-0.963c0.519,0,0.667,0.445,0.667,0.963V56.37l-1.777,5.26C64.26,61.852,64.26,62,64.26,62.223v2.37
	v1.333c0,1.037,0.814,1.852,1.852,1.852c1.039,0,1.853-0.813,1.853-1.852V62.52l1.777-5.26c0.073-0.223,0.073-0.371,0.073-0.594
	v-3.703h9.261c3.036,0,5.555-2.519,5.555-5.556V6.667C84.629,3.63,82.111,1.111,79.074,1.111z M65.223,37.259
	c-0.445,0-0.814,0.074-1.26,0.148c-0.666-1.704-2.37-2.963-4.297-2.963c-0.443,0-0.814,0.074-1.259,0.148
	c-0.667-1.704-2.37-2.963-4.296-2.963c-0.297,0-0.594,0-0.963,0.074v-5.185c0-2.519-2.074-4.667-4.667-4.667
	c-2.593,0-4.592,2.149-4.592,4.742v10.814l-4.444,4.445h-6.667v-29.63H73.52v29.63h-3.705C69.814,39.333,67.74,37.259,65.223,37.259
	z M80.926,47.407c0,1.037-0.814,1.852-1.852,1.852h-9.26v-3.704h7.408V8.519H29.074v37.037h9.259v3.704H23.519
	c-1.037,0-1.852-0.815-1.852-1.852V6.667c0-1.037,0.815-1.852,1.852-1.852h55.556c1.036,0,1.852,0.815,1.852,1.852L80.926,47.407
	L80.926,47.407z"/>
<circle fill="#FFFFFF" cx="25.37" cy="27.037" r="1.852"/>
</svg>
