<svg xmlns="http://www.w3.org/2000/svg" xmlns:xlink="http://www.w3.org/1999/xlink" version="1.1" id="&#1057;&#1083;&#1086;&#1081;_1" x="0px" y="0px" width="100px" height="100px" viewBox="5.0 -10.0 100.0 135.0" enable-background="new 0 0 100 100" xml:space="preserve">
<g>
	<circle fill="#ffffff" cx="50" cy="14.231" r="9.231"/>
	<path fill="#ffffff" d="M81.456,15.082c-1.351-1.351-3.545-1.351-4.895,0c-0.289,0.288-0.817,0.816-0.817,0.816L63.331,28.31   c-0.762-1.5-2.303-2.539-4.101-2.539H40.769c-1.798,0-3.339,1.039-4.101,2.54L24.254,15.896c0,0-0.527-0.526-0.816-0.815   c-1.351-1.352-3.543-1.352-4.895,0c-1.351,1.35-1.351,3.544,0,4.895c0.288,0.288,0.816,0.816,0.816,0.816l14.686,14.686   c0,0,0.527,0.527,0.816,0.815c0.376,0.377,0.821,0.637,1.292,0.804v30.21h2.308V95h9.231V67.309h4.615V95h9.23V67.309h2.308v-30.21   c0.472-0.167,0.916-0.427,1.293-0.804c0.288-0.288,0.816-0.815,0.816-0.815l14.686-14.687c0,0,0.526-0.527,0.815-0.815   C82.808,18.625,82.808,16.433,81.456,15.082z"/>
</g>
</svg>