<svg xmlns="http://www.w3.org/2000/svg" xmlns:xlink="http://www.w3.org/1999/xlink" version="1.1" id="Layer_1" x="0px" y="0px" width="100.0px" height="100px" viewBox="6.0 -12.0 120.0 162.0" enable-background="new 0 0 120 120" xml:space="preserve">
<g>
	<path fill="#ffffff" d="M38.874,48.305c-0.455,0.033-0.91,0.069-1.374,0.069c-10.201,0-18.5-8.299-18.5-18.5s8.299-18.5,18.5-18.5   S56,19.673,56,29.875c0,0.417-0.021,0.83-0.049,1.24l-0.124-0.022l-3.938-0.707c-0.597-0.107-1.199,0.156-1.527,0.667   c-0.328,0.51-0.315,1.168,0.031,1.666l4.845,6.966c0.474,0.68,1.407,0.848,2.088,0.375l6.966-4.845   c0.498-0.346,0.739-0.959,0.609-1.552s-0.604-1.049-1.2-1.156l-3.795-0.681C59.962,31.181,60,30.532,60,29.875   c0-12.407-10.094-22.5-22.5-22.5S15,17.468,15,29.875s10.094,22.5,22.5,22.5c0.939,0,1.864-0.064,2.774-0.177l-1.229-3.354   C38.979,48.665,38.931,48.484,38.874,48.305z"/>
	<path fill="#ffffff" d="M95.154,61.773c-0.829-2.277-3.207-3.807-5.917-3.807c-0.776,0-1.525,0.129-2.227,0.385   c-0.382,0.139-1.306,0.625-2.189,1.298c-1.125-2.483-3.625-4.117-6.38-4.117c-0.815,0-1.621,0.142-2.394,0.423   c-1.517,0.552-2.769,1.585-3.592,2.947c-1.74-2.22-4.628-3.147-7.316-2.169c-1.756,0.639-3.123,1.921-3.852,3.61l-6.978-17.229   c-1.125-3.09-3.771-5.086-6.739-5.086c-0.806,0-1.615,0.146-2.407,0.434c-3.752,1.367-5.479,5.427-4.005,9.474l11.597,29.859   c-0.608,0.689-1.486,1.863-2.473,3.738c-3.414,6.494-1.002,18.316,7.918,24.899c6.377,4.706,12.256,6.897,18.502,6.897   c3.661,0,7.471-0.738,11.646-2.258c11.868-4.32,13.671-11.721,14.499-18.93C103.646,85.208,95.502,62.727,95.154,61.773z    M99.867,91.801c-0.78,6.789-2.263,12.711-12.544,16.453c-3.842,1.398-7.315,2.078-10.62,2.078c-5.649,0-10.806-1.946-16.721-6.312   c-5.326-3.931-10.718-14.101-7.043-21.089c0.396-0.755,0.765-1.367,1.089-1.855l3.788,9.751c0.3,0.772,1.168,1.154,1.941,0.855   c0.772-0.3,1.155-1.169,0.855-1.941L43.967,46.882c-0.906-2.489,0.009-4.792,2.224-5.598c2.185-0.794,4.424,0.448,5.32,2.909   l10.517,25.969c0.288,0.713,1.069,1.095,1.811,0.877c0.738-0.215,1.194-0.954,1.056-1.711l-0.826-4.488   c-0.016-0.082-0.037-0.163-0.066-0.242c-0.377-1.034-0.362-2.121,0.04-3.059c0.396-0.926,1.151-1.631,2.125-1.985   c1.95-0.71,3.884,0.389,4.673,2.556l1.026,2.817v0.001c0.283,0.778,1.145,1.18,1.922,0.896c0.778-0.283,1.18-1.144,0.896-1.923   l-0.002-0.006c-0.363-1.002-0.314-2.086,0.136-3.053c0.451-0.968,1.253-1.703,2.256-2.068c0.443-0.161,0.903-0.242,1.368-0.242   c1.676,0,3.187,1.059,3.761,2.633c0,0,2.021,5.026,2.464,6.108c0.443,1.084,1.146,1.256,1.896,0.975s1.018-1.055,0.681-2.004   s-1.306-3.586-1.306-3.586c0.463-0.48,1.437-1.248,2.1-1.49c0.371-0.135,0.774-0.203,1.2-0.203c1.432,0,2.705,0.754,3.099,1.832   C94.633,69.111,100.464,86.625,99.867,91.801z"/>
</g>
</svg>