<svg xmlns="http://www.w3.org/2000/svg" xmlns:xlink="http://www.w3.org/1999/xlink" version="1.1" x="0px" y="0px" width="100px" height="100px" viewBox="5.0 -10.0 100.0 135.0" enable-background="new 0 0 100 100" xml:space="preserve">
<g id="Captions">
</g>
<g id="Your_Icon">
	<path fill="#ffffff" d="M78.868,12.266H32.381c-5.421,0-9.831,4.41-9.831,9.832v4.953c0.596,0.097,1.191,0.326,1.787,0.564v-5.518   c0-4.436,3.609-8.045,8.044-8.045h46.487c4.436,0,8.044,3.609,8.044,8.045v25.025c0,4.436-3.608,8.045-8.044,8.045H50   c0,0.596,0,1.191,0,1.787h28.868c5.421,0,9.832-4.41,9.832-9.832V22.098C88.7,16.676,84.289,12.266,78.868,12.266z"/>
	<line fill="#ffffff" x1="44.223" y1="34.611" x2="30.814" y2="34.611"/>
	<path fill="#ffffff" d="M44.223,35.504H30.814c-0.493,0-0.894-0.4-0.894-0.893c0-0.494,0.4-0.895,0.894-0.895h13.408   c0.493,0,0.894,0.4,0.894,0.895C45.116,35.104,44.716,35.504,44.223,35.504z"/>
	<path fill="#ffffff" d="M41.541,38.186c-0.229,0-0.457-0.088-0.632-0.262c-0.35-0.35-0.35-0.916,0-1.264l2.049-2.051l-2.049-2.049   c-0.35-0.348-0.35-0.914,0-1.264c0.348-0.35,0.914-0.35,1.264,0l2.682,2.682c0.167,0.166,0.262,0.395,0.262,0.631   c0,0.238-0.095,0.465-0.262,0.633l-2.682,2.682C41.998,38.098,41.77,38.186,41.541,38.186z"/>
	<path fill="#ffffff" d="M20,41.945c0-0.738,0-1.439,0-2.097c-2-1.179-2.86-3.085-2.86-5.239c0-3.572,2.818-6.479,6.391-6.479   s6.315,2.906,6.315,6.479c0,2.154-0.846,4.061-2.846,5.239v2.097c3-1.379,4.589-4.146,4.589-7.336c0-4.559-3.649-8.268-8.208-8.268   c-4.56,0-8.059,3.709-8.059,8.268C15.322,37.8,17,40.566,20,41.945z"/>
	<path fill="#ffffff" d="M47.351,51.471h-2.235c-0.629,0-1.274,0.152-1.841,0.43c-0.293-1.68-1.76-2.959-3.521-2.959h-2.234   c-0.737,0-1.423,0.223-1.993,0.607c-0.491-1.387-1.817-2.383-3.37-2.383h-2.234c-0.651,0-1.261,0.176-1.787,0.48V34.609   c0-2.586-2.105-4.691-4.692-4.691c-2.588,0-4.692,2.105-4.692,4.691v24.752c-1.003,0.477-1.933,1.115-2.742,1.924l-1.832,1.832   c-3.833,3.834-3.833,10.07,0,13.904l5.105,5.105c0.251,0.25,0.514,0.482,0.784,0.701c1.701,2.93,4.881,4.906,8.516,4.906h12.514   c5.421,0,9.832-4.391,9.832-9.791V55.045C50.926,53.074,49.321,51.471,47.351,51.471z M49.138,77.943   c0,4.414-3.608,8.004-8.044,8.004H28.58c-1.474,0-2.853-0.402-4.041-1.094c-0.986-0.59-2.085-1.447-3.091-3.223   c-0.579-1.104-0.912-2.357-0.912-3.688c0-0.492-0.4-0.895-0.894-0.895c-0.494,0-0.894,0.402-0.894,0.895   c0,0.406,0.027,0.807,0.075,1.201l-3.386-3.387c-3.136-3.137-3.136-8.24,0-11.377l1.832-1.832c0.451-0.449,0.949-0.832,1.479-1.158   v6.123c0,0.494,0.399,0.893,0.894,0.893c0.493,0,0.894-0.398,0.894-0.893V34.609c0-1.602,1.304-2.904,2.905-2.904   s2.904,1.303,2.904,2.904V57.57c0,0.494,0.4,0.893,0.895,0.893c0.492,0,0.894-0.398,0.894-0.893v-6.828   c0-0.986,0.802-1.789,1.787-1.789h2.234c0.985,0,1.788,0.803,1.788,1.789v6.838c0,0.492,0.399,0.893,0.894,0.893   c0.493,0,0.894-0.4,0.894-0.893v-5.064c0-0.984,0.803-1.787,1.788-1.787h2.234c0.985,0,1.787,0.803,1.787,1.787v5.055   c0,0.494,0.4,0.893,0.895,0.893c0.493,0,0.894-0.398,0.894-0.893v-3.24c0-0.521,0.919-1.072,1.787-1.072h2.235   c0.985,0,1.787,0.803,1.787,1.787V77.943z"/>
</g>
</svg>