<svg xmlns="http://www.w3.org/2000/svg" xmlns:xlink="http://www.w3.org/1999/xlink" version="1.1" x="0px" y="0px" width="100px" height="100px" viewBox="5.0 -10.0 100.0 135.0" enable-background="new 0 0 100 100" xml:space="preserve">
<g id="Captions">
</g>
<g id="Your_Icon">
	<path fill="#ffffff" d="M61.539,31.635H48c0,0.596,0,1.191,0,1.787h12.446C60.923,32.938,61.187,32.242,61.539,31.635z"/>
	<path fill="#ffffff" d="M71.247,67.785c-0.621,3.82-3.937,6.752-7.931,6.752H16.829c-4.436,0-8.044-3.609-8.044-8.043V41.467   c0-4.436,3.608-8.045,8.044-8.045H33c0-0.596,0-1.191,0-1.787H16.829c-5.421,0-9.832,4.41-9.832,9.832v25.027   c0,5.42,4.411,9.83,9.832,9.83h46.487c4.953,0,9.051-3.686,9.724-8.455C72.442,67.946,71.845,67.977,71.247,67.785z"/>
	<line fill="#ffffff" x1="40.072" y1="52.92" x2="40.072" y2="39.514"/>
	<path fill="#ffffff" d="M40.072,53.814c-0.494,0-0.894-0.4-0.894-0.895V39.514c0-0.494,0.399-0.895,0.894-0.895   c0.493,0,0.894,0.4,0.894,0.895V52.92C40.966,53.414,40.565,53.814,40.072,53.814z"/>
	<path fill="#ffffff" d="M40.073,53.814c-0.237,0-0.465-0.094-0.632-0.262l-2.682-2.682c-0.35-0.35-0.35-0.914,0-1.264   c0.349-0.35,0.915-0.35,1.264,0l2.05,2.049l2.048-2.049c0.349-0.35,0.915-0.35,1.265,0c0.349,0.348,0.349,0.914,0,1.264   l-2.681,2.682C40.537,53.721,40.31,53.814,40.073,53.814z"/>
	<path fill="#ffffff" d="M41.091,38.33c-1.979,0.313-4.078-0.285-5.602-1.809c-2.525-2.525-2.525-6.637,0-9.164   c2.527-2.525,6.639-2.525,9.164,0c1.523,1.523,2.122,3.621,1.809,5.601l1.482,1.483c0.9-2.85,0.229-6.092-2.026-8.348   c-3.224-3.225-8.469-3.225-11.692,0s-3.224,8.469,0,11.691c2.255,2.256,5.498,2.928,8.348,2.027   C42.051,39.29,41.556,38.795,41.091,38.33z"/>
	<path fill="#ffffff" d="M68.899,26.955l-1.58,1.58c-0.444,0.445-0.793,1.01-0.997,1.605c-1.396-0.979-3.338-0.848-4.583,0.398   l-1.58,1.58c-0.521,0.521-0.847,1.164-0.979,1.838c-1.329-0.633-2.971-0.398-4.068,0.699l-1.58,1.58   c-0.46,0.461-0.769,1.016-0.925,1.604l-9.218-9.217c-1.829-1.83-4.807-1.83-6.636,0c-1.83,1.828-1.829,4.805,0,6.635L54.255,52.76   c-0.373,1.045-0.577,2.154-0.578,3.299v2.592c0,5.42,4.411,9.832,9.833,9.832h7.22c0.354,0,0.703-0.023,1.052-0.059   c3.273,0.867,6.919,0.018,9.49-2.553l8.848-8.848c3.834-3.834,3.847-10.059,0.028-13.877L73.956,26.955   C72.562,25.562,70.294,25.562,68.899,26.955z M88.884,44.41c3.121,3.121,3.107,8.213-0.028,11.35l-8.848,8.848   c-1.044,1.041-2.303,1.73-3.632,2.082c-1.115,0.281-2.498,0.453-4.463-0.092c-1.192-0.371-2.313-1.021-3.254-1.963   c-0.349-0.348-0.915-0.348-1.264,0c-0.35,0.35-0.349,0.916,0,1.264c0.287,0.289,0.589,0.551,0.901,0.795H63.51   c-4.436,0-8.044-3.607-8.045-8.043v-2.592c0.001-0.637,0.083-1.26,0.226-1.865l4.33,4.33c0.349,0.35,0.914,0.35,1.264,0   c0.348-0.348,0.349-0.914,0-1.264L38.019,33.994c-1.133-1.133-1.133-2.977,0-4.107c1.132-1.133,2.976-1.133,4.107,0L58.36,46.121   c0.35,0.35,0.915,0.35,1.265-0.002c0.349-0.348,0.349-0.912,0-1.264l-4.829-4.826c-0.696-0.699-0.696-1.832,0-2.529l1.58-1.58   c0.697-0.697,1.832-0.697,2.528,0l4.835,4.836c0.35,0.35,0.915,0.35,1.264,0c0.35-0.35,0.351-0.916,0-1.264l-3.58-3.58   c-0.696-0.699-0.696-1.832,0.001-2.529l1.58-1.58c0.696-0.697,1.831-0.697,2.527,0l3.573,3.574c0.35,0.35,0.915,0.348,1.264,0   c0.35-0.35,0.351-0.916,0-1.266l-2.29-2.291c-0.368-0.367-0.109-1.406,0.506-2.021l1.579-1.58c0.697-0.697,1.832-0.697,2.529,0   L88.884,44.41z"/>
</g>
</svg>