<svg xmlns="http://www.w3.org/2000/svg" xmlns:xlink="http://www.w3.org/1999/xlink" version="1.1" x="0px" y="0px" width="100px" height="100px" viewBox="5.0 -10.0 100.0 135.0" enable-background="new 0 0 100 100" xml:space="preserve">
<g id="Captions">
</g>
<g id="Your_Icon">
	<path fill="#ffffff" d="M59.956,12.266H13.47c-5.422,0-9.832,4.41-9.832,9.832v25.025c0,5.422,4.41,9.832,9.832,9.832h46.486   c1.846,0,3.567-0.521,5.044-1.408c0-0.696,0-1.407,0-2.166c-1.381,1.115-3.135,1.787-5.044,1.787H13.47   c-4.436,0-8.045-3.609-8.045-8.045V22.098c0-4.436,3.609-8.045,8.045-8.045h46.486c4.436,0,8.045,3.609,8.045,8.045V27   c0.536,0,1.146,0,1.787,0v-4.902C69.788,16.676,65.378,12.266,59.956,12.266z"/>
	<line fill="#ffffff" x1="48.096" y1="34.609" x2="61.504" y2="34.609"/>
	<path fill="#ffffff" d="M61.504,35.504H48.096c-0.493,0-0.894-0.4-0.894-0.895s0.4-0.893,0.894-0.893h13.408   c0.493,0,0.894,0.398,0.894,0.893S61.997,35.504,61.504,35.504z"/>
	<path fill="#ffffff" d="M50.777,38.186c-0.229,0-0.457-0.088-0.632-0.262l-2.682-2.682c-0.167-0.168-0.262-0.395-0.262-0.631   c0-0.238,0.095-0.465,0.262-0.633l2.682-2.682c0.35-0.35,0.915-0.35,1.264,0c0.35,0.35,0.35,0.916,0,1.264l-2.049,2.051   l2.049,2.049c0.35,0.348,0.35,0.914,0,1.264C51.235,38.098,51.006,38.186,50.777,38.186z"/>
	<path fill="#ffffff" d="M65,41.945c0-0.739,0-1.439,0-2.097c-2-1.179-2.641-3.085-2.641-5.239c0-3.572,2.926-6.479,6.499-6.479   s6.651,2.906,6.651,6.479c0,2.154-1.51,4.061-2.51,5.239v2.097c2-1.379,4.307-4.146,4.307-7.336c0-4.559-3.789-8.268-8.348-8.268   s-8.348,3.709-8.348,8.268C60.611,37.8,62,40.566,65,41.945z"/>
	<path fill="#ffffff" d="M92.787,51.471h-2.234c-0.63,0-1.274,0.152-1.841,0.43c-0.293-1.68-1.761-2.959-3.522-2.959h-2.234   c-0.737,0-1.423,0.223-1.992,0.607c-0.492-1.387-1.817-2.383-3.37-2.383h-2.234c-0.651,0-1.262,0.176-1.788,0.48V34.609   c0-2.586-2.105-4.691-4.692-4.691c-2.588,0-4.692,2.105-4.692,4.691v24.752c-1.003,0.477-1.933,1.115-2.741,1.924l-1.832,1.832   c-3.834,3.834-3.834,10.07,0,13.904l5.105,5.105c0.25,0.25,0.513,0.482,0.784,0.701c1.701,2.93,4.88,4.906,8.516,4.906H86.53   c5.422,0,9.832-4.391,9.832-9.791V55.045C96.362,53.074,94.758,51.471,92.787,51.471z M94.575,77.943   c0,4.414-3.609,8.004-8.045,8.004H74.018c-1.475,0-2.853-0.402-4.041-1.094c-0.986-0.59-2.086-1.447-3.091-3.223   c-0.58-1.104-0.912-2.357-0.912-3.688c0-0.492-0.401-0.895-0.895-0.895c-0.494,0-0.894,0.402-0.894,0.895   c0,0.406,0.028,0.807,0.076,1.201l-3.386-3.387c-3.137-3.137-3.137-8.24,0-11.377l1.832-1.832c0.45-0.449,0.949-0.832,1.478-1.158   v6.123c0,0.494,0.399,0.893,0.894,0.893c0.493,0,0.895-0.398,0.895-0.893V34.609c0-1.602,1.303-2.904,2.904-2.904   s2.905,1.303,2.905,2.904V57.57c0,0.494,0.399,0.893,0.894,0.893c0.493,0,0.894-0.398,0.894-0.893v-6.828   c0-0.986,0.802-1.789,1.788-1.789h2.234c0.985,0,1.787,0.803,1.787,1.789v6.838c0,0.492,0.4,0.893,0.895,0.893   c0.493,0,0.894-0.4,0.894-0.893v-5.064c0-0.984,0.802-1.787,1.787-1.787h2.234c0.985,0,1.788,0.803,1.788,1.787v5.055   c0,0.494,0.399,0.893,0.894,0.893c0.493,0,0.894-0.398,0.894-0.893v-3.24c0-0.521,0.919-1.072,1.788-1.072h2.234   c0.985,0,1.788,0.803,1.788,1.787V77.943z"/>
</g>
</svg>