<svg xmlns="http://www.w3.org/2000/svg" xmlns:xlink="http://www.w3.org/1999/xlink" version="1.1" x="0px" y="0px" width="100px" height="100px" viewBox="5.0 -10.0 100.0 135.0" enable-background="new 0 0 100 100" xml:space="preserve">
<g id="Captions">
</g>
<g id="Your_Icon">
	<path fill="#ffffff" d="M73.146,19.957c0-5.421-4.41-9.831-9.832-9.831H16.827c-5.422,0-9.832,4.41-9.832,9.831v25.027   c0,5.421,4.41,9.831,9.832,9.831H33c0-0.596,0-1.191,0-1.787H16.827c-4.436,0-8.045-3.609-8.045-8.044V19.957   c0-4.435,3.609-8.044,8.045-8.044h46.486c4.436,0,8.045,3.609,8.045,8.044v25.027c0,1.066-0.213,2.083-0.592,3.016   c0.634,0,1.268,0,1.901,0c0.308-0.951,0.478-1.963,0.478-3.016V19.957z"/>
	<path fill="#ffffff" d="M47,53.028c0,0.569,0,1.205,0,1.787h13.185c0.596-0.596,1.191-1.191,1.787-1.787H47z"/>
	<line fill="#ffffff" x1="40.07" y1="32.277" x2="40.07" y2="45.685"/>
	<path fill="#ffffff" d="M40.07,46.578c-0.493,0-0.894-0.4-0.894-0.894V32.277c0-0.493,0.4-0.894,0.894-0.894   c0.494,0,0.895,0.4,0.895,0.894v13.407C40.965,46.178,40.564,46.578,40.07,46.578z"/>
	<path fill="#ffffff" d="M37.39,35.854c-0.229,0-0.458-0.088-0.633-0.263c-0.349-0.349-0.349-0.915,0-1.264l2.681-2.682   c0.336-0.335,0.929-0.335,1.265,0l2.681,2.682c0.35,0.349,0.35,0.915,0,1.264c-0.349,0.35-0.914,0.35-1.264,0l-2.05-2.049   l-2.048,2.049C37.847,35.766,37.618,35.854,37.39,35.854z"/>
	<path fill="#ffffff" d="M41.093,59.452c-1.979,0.312-4.078-0.285-5.601-1.808c-2.526-2.527-2.526-6.639,0-9.164   c2.526-2.527,6.638-2.527,9.164,0c1.522,1.521,2.121,3.619,1.809,5.6l1.482,1.482c0.9-2.849,0.229-6.092-2.026-8.348   c-3.225-3.223-8.469-3.223-11.692,0c-3.224,3.225-3.224,8.47,0,11.693c2.255,2.254,5.497,2.926,8.347,2.026   C42.054,60.412,41.558,59.916,41.093,59.452z"/>
	<path fill="#ffffff" d="M68.902,48.078l-1.58,1.579c-0.445,0.445-0.794,1.009-0.998,1.605c-1.395-0.979-3.337-0.848-4.582,0.397   l-1.581,1.58c-0.521,0.521-0.847,1.164-0.979,1.84c-1.328-0.633-2.97-0.4-4.068,0.697l-1.579,1.58   c-0.46,0.461-0.769,1.017-0.925,1.604l-9.218-9.217c-1.83-1.83-4.807-1.83-6.637,0c-1.829,1.829-1.828,4.806,0.001,6.635   l17.501,17.502c-0.373,1.047-0.577,2.156-0.578,3.299v2.592c0,5.422,4.41,9.832,9.833,9.832h7.219c0.354,0,0.704-0.021,1.052-0.059   c3.274,0.868,6.919,0.019,9.49-2.553l8.849-8.848c3.833-3.834,3.847-10.058,0.027-13.876L73.958,48.076   C72.564,46.684,70.296,46.684,68.902,48.078z M88.886,65.533c3.121,3.12,3.108,8.211-0.027,11.348l-8.849,8.848   c-1.043,1.042-2.303,1.732-3.632,2.084c-1.114,0.28-2.497,0.452-4.463-0.093c-1.191-0.371-2.312-1.022-3.253-1.963   c-0.349-0.349-0.916-0.349-1.264,0c-0.351,0.35-0.35,0.915,0,1.264c0.287,0.288,0.589,0.551,0.901,0.795h-4.787   c-4.437-0.001-8.045-3.608-8.045-8.044V77.18c0-0.636,0.082-1.259,0.226-1.864l4.329,4.329c0.35,0.351,0.915,0.351,1.264,0.001   c0.349-0.349,0.35-0.914,0-1.265L38.021,55.115c-1.133-1.132-1.133-2.976,0-4.107c1.133-1.133,2.976-1.133,4.107,0l16.235,16.234   c0.35,0.35,0.915,0.35,1.264,0c0.35-0.349,0.35-0.914,0-1.264l-4.828-4.828c-0.696-0.697-0.696-1.831,0-2.529l1.58-1.579   c0.697-0.696,1.832-0.696,2.528,0l4.835,4.835c0.35,0.35,0.914,0.35,1.264,0c0.349-0.349,0.35-0.914,0-1.264l-3.581-3.58   c-0.696-0.697-0.696-1.831,0.001-2.529l1.58-1.579c0.696-0.696,1.831-0.696,2.528,0l3.573,3.573c0.349,0.35,0.915,0.35,1.264,0   c0.35-0.349,0.35-0.915,0-1.264l-2.29-2.291c-0.369-0.368-0.109-1.407,0.505-2.021l1.58-1.58c0.697-0.697,1.832-0.697,2.528,0   L88.886,65.533z"/>
</g>
</svg>